<svg width="144" height="152" viewBox="0 0 144 152" fill="none" xmlns="http://www.w3.org/2000/svg">
<path d="M13.86 120.22C13.3802 120.224 12.9103 120.358 12.5007 120.608C12.0911 120.858 11.7569 121.215 11.5341 121.64C11.3113 122.065 11.2081 122.542 11.2355 123.021C11.263 123.5 11.42 123.963 11.6899 124.36C19.2132 135.303 30.04 143.552 42.5871 147.902C55.1342 152.252 68.7435 152.473 81.4257 148.535C94.1079 144.597 105.198 136.705 113.074 126.013C120.95 115.321 125.199 102.39 125.2 89.11V13.97C125.197 13.2706 124.918 12.6007 124.424 12.1061C123.929 11.6116 123.259 11.3326 122.56 11.33H109.64C97.2682 11.3406 85.4068 16.2619 76.6616 25.0128C67.9163 33.7637 63.0026 45.6284 62.9999 58V81.33C62.9999 91.6425 58.9041 101.533 51.613 108.826C44.3218 116.119 34.4326 120.217 24.1201 120.22H13.86Z" fill="url(#paint0_linear_8_727)"/>
<path d="M24.26 105.47C29.0702 105.48 33.7752 104.063 37.7795 101.397C41.7839 98.7322 44.9075 94.939 46.7551 90.4978C48.6028 86.0566 49.0913 81.1671 48.1589 76.4481C47.2266 71.7292 44.9151 67.3929 41.5173 63.9881C38.1195 60.5832 33.7881 58.2629 29.071 57.3209C24.354 56.3788 19.4635 56.8573 15.0186 58.6958C10.5736 60.5343 6.77402 63.6501 4.10059 67.6489C1.42715 71.6478 1.01743e-05 76.3499 0 81.1601V97.3501C0.00264628 99.5028 0.858881 101.567 2.3811 103.089C3.90333 104.611 5.96737 105.467 8.12012 105.47H24.26Z" fill="url(#paint1_linear_8_727)"/>
<path style="mix-blend-mode:overlay" opacity="0.4" d="M11.53 121.64C37.67 138.36 72.5299 141 89.1499 101.93C105.77 62.86 73.3399 27.93 125.15 13.93C176.96 -0.0700006 101.77 6.86421e-06 101.77 6.86421e-06L48.51 27.45L57.95 94.24L36.7 115.49H8.59009L11.53 121.64Z" fill="url(#paint2_linear_8_727)"/>
<defs>
<linearGradient id="paint0_linear_8_727" x1="27.9598" y1="141.78" x2="140.01" y2="31.7099" gradientUnits="userSpaceOnUse">
<stop stop-color="#1FB597"/>
<stop offset="1" stop-color="#91EB50"/>
</linearGradient>
<linearGradient id="paint1_linear_8_727" x1="121452" y1="100812" x2="124255" y2="98009.2" gradientUnits="userSpaceOnUse">
<stop stop-color="#1FB597"/>
<stop offset="1" stop-color="#91EB50"/>
</linearGradient>
<linearGradient id="paint2_linear_8_727" x1="11.5301" y1="104.03" x2="89.28" y2="60.1601" gradientUnits="userSpaceOnUse">
<stop stop-color="#1B1464"/>
<stop offset="1" stop-color="#1B1464" stop-opacity="0"/>
</linearGradient>
</defs>
</svg>
